<svg width="500" height="500" viewBox="0 0 500 500" fill="none" xmlns="http://www.w3.org/2000/svg">
<rect width="500" height="500" rx="40" fill="black"/>
<mask id="mask0_425_2" style="mask-type:luminance" maskUnits="userSpaceOnUse" x="36" y="87" width="428" height="207">
<path d="M463.083 87H36V293.25H463.083V87Z" fill="white"/>
</mask>
<g mask="url(#mask0_425_2)">
<path d="M119.601 191.996C121.7 192.956 123.8 194.844 125.883 197.66C130.066 203.194 132.166 210.567 132.166 219.763C132.166 230.961 127.299 239.221 117.583 244.535C112.651 247.164 107.736 248.685 102.836 249.092H47.4653V147.139H94.6659C98.5477 147.139 102.682 147.977 107.068 149.646C115.743 153.015 121.293 158.817 123.702 167.061C125.476 173.034 125.314 178.991 123.214 184.932C122.172 187.862 120.968 190.222 119.601 191.996ZM71.9445 166.117V188.871H93.7218C96.8631 188.871 99.5894 187.78 101.892 185.583C104.082 183.394 105.18 180.725 105.18 177.575C105.18 174.345 104.082 171.618 101.892 169.405C99.5894 167.216 96.8631 166.117 93.7218 166.117H71.9445ZM113.025 218.982C113.025 215.84 111.927 213.114 109.737 210.811C107.54 208.622 104.871 207.523 101.73 207.523H71.9445V230.277H101.73C104.871 230.277 107.54 229.187 109.737 226.989C111.927 224.776 113.025 222.107 113.025 218.982Z" fill="white"/>
<path d="M163.502 180.407C165.276 175.378 168.263 171.871 172.454 169.893C176.531 167.899 182.643 166.898 190.781 166.898V189.327C182.838 189.327 176.205 192.053 170.891 197.497C165.96 202.315 163.502 207.588 163.502 213.318V249.092H141.562V168.331H163.502V180.407Z" fill="white"/>
<path d="M275.62 212.243C275.726 214.441 275.726 215.743 275.62 216.15L216.668 215.987C217.49 218.396 218.996 220.699 221.193 222.888C225.27 226.778 229.982 228.715 235.321 228.715C240.96 228.503 245.672 226.517 249.448 222.758L250.067 222.107L270.444 228.552C265.952 235.567 261.248 240.58 256.349 243.591C250.791 247.155 243.833 248.987 235.483 249.092C224.391 249.198 214.878 245.333 206.935 237.471C198.993 229.642 194.964 220.137 194.858 208.956C194.744 197.872 198.618 188.35 206.479 180.407C214.308 172.465 223.813 168.445 234.995 168.331C246.079 168.225 255.601 172.09 263.543 179.919C271.486 187.78 275.506 197.294 275.62 208.467V212.243ZM235.158 188.871C229.624 188.871 224.92 190.808 221.063 194.665C219.061 196.863 217.653 199.06 216.831 201.273H253.68C252.834 199.06 251.369 196.806 249.285 194.502C245.314 190.751 240.602 188.871 235.158 188.871Z" fill="white"/>
<path d="M340.062 168.005H362.035V249.092H340.062V240.01C335.57 245.853 328.775 248.767 319.685 248.767C308.593 248.881 299.079 245.015 291.137 237.178C283.194 229.325 279.166 219.812 279.06 208.63C278.946 197.546 282.82 188.025 290.681 180.082C298.51 172.139 308.015 168.119 319.197 168.005C328.392 168.005 335.35 170.992 340.062 176.957V168.005ZM333.487 222.432C337.344 218.575 339.281 213.863 339.281 208.305C339.281 202.665 337.295 197.969 333.324 194.21C329.353 190.238 324.698 188.35 319.359 188.545C313.825 188.545 309.122 190.49 305.264 194.372C301.374 198.238 299.437 202.933 299.437 208.467C299.437 213.92 301.423 218.624 305.394 222.595C309.276 226.46 313.988 228.389 319.522 228.389C325.162 228.178 329.817 226.192 333.487 222.432Z" fill="white"/>
<path d="M427.095 249.092L400.89 217.712L393.371 225.101V249.092H371.431V140.075H393.371V194.047L419.087 168.331L450.142 168.493L416.255 202.185L456.262 249.092H427.095Z" fill="white"/>
</g>
<mask id="mask1_425_2" style="mask-type:luminance" maskUnits="userSpaceOnUse" x="48" y="259" width="63" height="116">
<path d="M111 259.917H48.5V374.5H111V259.917Z" fill="white"/>
</mask>
<g mask="url(#mask1_425_2)">
<path d="M96.5846 334.828L103.909 342.25L97.203 349.053L89.7812 341.533L88.121 343.128C88.0071 343.308 87.8118 343.535 87.5351 343.812C85.4273 345.79 83.2463 347.279 80.9921 348.272C78.3635 349.313 75.6617 349.834 72.8866 349.834C70.0221 349.834 67.3202 349.313 64.7812 348.272C62.4374 347.344 60.2239 345.855 58.1405 343.812C56.2688 341.948 54.7877 339.743 53.6809 337.204C52.5741 334.405 52.0208 331.695 52.0208 329.066C52.0208 326.397 52.5741 323.695 53.6809 320.961C54.7877 318.405 56.2688 316.2 58.1405 314.352C59.288 313.295 60.1588 312.562 60.7447 312.171C59.8739 311 59.1252 309.746 58.4986 308.395C57.6685 306.312 57.2616 304.253 57.2616 302.211C57.2616 300.127 57.6685 298.101 58.4986 296.123C59.3612 294.26 60.4924 292.567 61.884 291.045C63.3977 289.662 65.0823 288.531 66.9296 287.66C68.9234 286.838 70.9661 286.423 73.0494 286.423C75.0839 286.423 77.151 286.838 79.2343 287.66C81.2037 288.596 82.8639 289.727 84.2148 291.045C85.7284 292.567 86.8596 294.26 87.6002 296.123C88.4221 298.101 88.8372 300.127 88.8372 302.211C88.8372 304.253 88.4221 306.312 87.6002 308.395C86.7294 310.397 85.5982 312.058 84.2148 313.376C82.8639 314.767 81.2037 315.907 79.2343 316.794L78.9739 316.859L78.7135 316.957L89.7812 328.024L99.5468 318.356L106.35 325.16L96.5846 334.828ZM73.0494 296.123C71.3567 296.123 69.9 296.701 68.6874 297.849C67.5155 299.086 66.9296 300.542 66.9296 302.211C66.9296 303.797 67.4586 305.165 68.5247 306.312C69.5012 307.419 70.7463 308.094 72.2681 308.33H73.0494C74.7421 308.33 76.1907 307.744 77.4114 306.573C78.5833 305.36 79.1692 303.903 79.1692 302.211C79.1692 300.542 78.5833 299.086 77.4114 297.849C76.1907 296.701 74.7421 296.123 73.0494 296.123ZM61.7213 329.066C61.7213 332.15 62.7955 334.779 64.9439 336.944C67.1575 339.092 69.8023 340.166 72.8866 340.166C77.2893 340.166 80.5445 338.246 82.6523 334.405L67.5481 319.3C63.6581 321.343 61.7213 324.598 61.7213 329.066Z" fill="#A1DDFB"/>
</g>
<mask id="mask2_425_2" style="mask-type:luminance" maskUnits="userSpaceOnUse" x="321" y="374" width="143" height="38">
<path d="M463.083 374.5H321.417V412H463.083V374.5Z" fill="white"/>
</mask>
<g mask="url(#mask2_425_2)">
<path d="M338.206 401.304C336.579 402.671 334.707 403.355 332.607 403.355C330.239 403.355 328.213 402.509 326.52 400.816C324.844 399.123 324.014 397.097 324.014 394.729C324.014 392.344 324.844 390.301 326.52 388.609C328.213 386.94 330.239 386.102 332.607 386.102C334.731 386.102 336.595 386.786 338.206 388.153L335.635 390.725C334.764 390.057 333.755 389.716 332.607 389.716C331.24 389.716 330.068 390.204 329.092 391.18C328.115 392.157 327.627 393.345 327.627 394.729C327.627 396.096 328.115 397.284 329.092 398.277C330.068 399.253 331.24 399.742 332.607 399.742C333.755 399.742 334.764 399.408 335.635 398.732L338.206 401.304Z" fill="#A1DDFB"/>
<path d="M346.634 390.139C348.473 390.122 350.052 390.757 351.354 392.059C352.656 393.361 353.307 394.924 353.307 396.747C353.323 398.594 352.689 400.157 351.387 401.434C350.101 402.736 348.555 403.404 346.732 403.42C344.884 403.436 343.314 402.801 342.012 401.499C340.709 400.222 340.058 398.659 340.058 396.812C340.034 394.989 340.661 393.426 341.946 392.124C343.249 390.822 344.811 390.163 346.634 390.139ZM349.01 399.091C349.637 398.464 349.954 397.691 349.954 396.779C349.954 395.868 349.629 395.087 348.978 394.436C348.327 393.833 347.545 393.524 346.634 393.524C345.739 393.524 344.982 393.842 344.355 394.468C343.721 395.144 343.411 395.917 343.411 396.779C343.411 397.691 343.737 398.472 344.388 399.123C345.014 399.758 345.788 400.067 346.699 400.067C347.627 400.026 348.4 399.701 349.01 399.091Z" fill="#A1DDFB"/>
<path d="M370.615 390.106C372.389 390.106 373.846 390.643 374.977 391.701C376.165 392.857 376.767 394.452 376.767 396.486V403.42H373.415V396.714C373.415 396.454 373.366 396.161 373.284 395.835C373.17 395.445 373.008 395.103 372.796 394.794C372.251 393.907 371.445 393.459 370.387 393.459C369.232 393.459 368.41 393.907 367.913 394.794C367.718 395.119 367.571 395.494 367.49 395.9C367.425 396.185 367.392 396.478 367.392 396.779V403.42H364.007V396.714C364.007 396.454 363.958 396.161 363.877 395.835C363.763 395.445 363.616 395.103 363.421 394.794C362.851 393.907 362.038 393.459 360.98 393.459C359.824 393.459 358.994 393.907 358.473 394.794C358.294 395.119 358.164 395.494 358.083 395.9C358.017 396.185 357.985 396.478 357.985 396.779V403.42H354.372V390.106H357.985V391.473C358.807 390.562 359.881 390.106 361.208 390.106C363.161 390.09 364.731 390.839 365.928 392.352L367.034 391.343C368.027 390.521 369.223 390.106 370.615 390.106Z" fill="#A1DDFB"/>
<path d="M394.576 390.106C396.35 390.106 397.807 390.643 398.938 391.701C400.127 392.857 400.729 394.452 400.729 396.486V403.42H397.376V396.714C397.376 396.454 397.327 396.161 397.246 395.835C397.132 395.445 396.969 395.103 396.757 394.794C396.212 393.907 395.406 393.459 394.349 393.459C393.193 393.459 392.371 393.907 391.875 394.794C391.679 395.119 391.533 395.494 391.451 395.9C391.386 396.185 391.354 396.478 391.354 396.779V403.42H387.968V396.714C387.968 396.454 387.919 396.161 387.838 395.835C387.724 395.445 387.578 395.103 387.382 394.794C386.813 393.907 385.999 393.459 384.941 393.459C383.785 393.459 382.955 393.907 382.434 394.794C382.255 395.119 382.125 395.494 382.044 395.9C381.979 396.185 381.946 396.478 381.946 396.779V403.42H378.333V390.106H381.946V391.473C382.768 390.562 383.842 390.106 385.169 390.106C387.122 390.09 388.693 390.839 389.889 392.352L390.996 391.343C391.988 390.521 393.185 390.106 394.576 390.106Z" fill="#A1DDFB"/>
<path d="M402.294 390.106H405.647V396.779C405.647 397.04 405.688 397.333 405.777 397.658C405.859 398.073 406.013 398.44 406.233 398.765C406.795 399.611 407.6 400.035 408.642 400.035C409.789 400.035 410.628 399.603 411.148 398.732C411.344 398.431 411.482 398.073 411.572 397.658C411.637 397.357 411.669 397.064 411.669 396.779V390.106H415.283V403.42H411.669V402.02C410.823 402.956 409.732 403.42 408.414 403.42C406.721 403.436 405.273 402.834 404.085 401.597C402.888 400.385 402.294 398.863 402.294 397.04V390.106Z" fill="#A1DDFB"/>
<path d="M423.449 390.204C425.337 390.057 426.9 390.546 428.137 391.669C429.455 392.889 430.123 394.59 430.123 396.779V403.42H426.77V396.877H426.737V396.812C426.737 395.9 426.42 395.135 425.793 394.501C425.142 393.874 424.361 393.557 423.449 393.557C422.538 393.581 421.765 393.907 421.138 394.533C420.487 395.184 420.178 395.957 420.227 396.844V396.877H420.194V403.42H416.581V390.106H420.194V391.831C420.992 390.855 422.082 390.318 423.449 390.204Z" fill="#A1DDFB"/>
<path d="M434.995 385.451V388.479H431.414V385.451H434.995ZM435.027 390.171V403.42H431.414V390.171H435.027Z" fill="#A1DDFB"/>
<path d="M446.143 390.139V393.752H443.181V403.42H439.568V393.752H436.573V390.139H439.568V385.516H443.181V390.139H446.143Z" fill="#A1DDFB"/>
<path d="M460.189 390.106L454.948 404.006C454.379 405.389 453.483 406.488 452.246 407.294C451.01 408.091 449.659 408.474 448.21 408.433V404.852C448.731 404.852 449.26 404.73 449.805 404.494C450.562 404.144 451.123 403.599 451.498 402.867L452.214 400.881L447.689 390.106H451.661L454.037 395.933L456.185 390.106H460.189Z" fill="#A1DDFB"/>
</g>
<mask id="mask3_425_2" style="mask-type:luminance" maskUnits="userSpaceOnUse" x="115" y="203" width="349" height="209">
<path d="M463.083 203.667H115.167V412H463.083V203.667Z" fill="white"/>
</mask>
<g mask="url(#mask3_425_2)">
<path d="M198.02 309.043C200.119 310.003 202.219 311.891 204.302 314.707C208.485 320.241 210.585 327.614 210.585 336.81C210.585 348.008 205.718 356.268 196.002 361.582C191.07 364.211 186.155 365.732 181.255 366.139H125.884V264.186H173.085C176.967 264.186 181.101 265.024 185.487 266.693C194.162 270.062 199.713 275.864 202.121 284.108C203.895 290.081 203.733 296.038 201.633 301.979C200.591 304.909 199.387 307.269 198.02 309.043ZM150.364 283.164V305.918H172.141C175.282 305.918 178.008 304.828 180.311 302.63C182.501 300.441 183.599 297.772 183.599 294.622C183.599 291.392 182.501 288.665 180.311 286.452C178.008 284.263 175.282 283.164 172.141 283.164H150.364ZM191.444 336.029C191.444 332.887 190.346 330.161 188.157 327.858C185.959 325.669 183.29 324.57 180.149 324.57H150.364V347.324H180.149C183.29 347.324 185.959 346.234 188.157 344.037C190.346 341.823 191.444 339.154 191.444 336.029Z" fill="white"/>
<path d="M219.981 285.052H240.359V325.84C240.359 327.402 240.619 329.185 241.14 331.178C241.766 333.571 242.71 335.76 243.972 337.754C247.422 342.987 252.338 345.599 258.718 345.599C265.7 345.599 270.77 342.93 273.92 337.591C275.067 335.703 275.905 333.514 276.426 331.016C276.833 329.242 277.045 327.459 277.045 325.677V285.052H299.017V366.139H277.045V357.676C271.918 363.324 265.334 366.139 257.286 366.139C246.934 366.245 238.153 362.542 230.951 355.007C223.635 347.585 219.981 338.389 219.981 327.402V285.052Z" fill="white"/>
<path d="M330.194 256.829V275.319H308.416V256.829H330.194ZM330.356 285.54V366.139H308.416V285.54H330.356Z" fill="white"/>
<path d="M361.716 257.122V366.139H339.776V257.122H361.716Z" fill="white"/>
<path d="M434.32 366.139V356.895C426.784 363.063 418.272 366.139 408.766 366.139C397.674 366.245 388.161 362.38 380.218 354.518C372.276 346.689 368.247 337.184 368.141 326.003C368.028 314.919 371.901 305.397 379.763 297.454C387.591 289.512 397.097 285.492 408.278 285.378C417.995 285.378 426.621 288.462 434.157 294.622V256.667H456.13L456.293 366.139H434.32ZM422.731 339.805C426.589 335.923 428.526 331.211 428.526 325.677C428.306 320.037 426.32 315.326 422.569 311.55C418.597 307.798 413.885 305.918 408.441 305.918C402.907 305.918 398.203 307.855 394.346 311.712C390.456 316.009 388.568 320.721 388.682 325.84C388.682 331.374 390.611 336.078 394.476 339.935C398.358 343.825 403.07 345.762 408.604 345.762C414.243 345.55 418.955 343.564 422.731 339.805Z" fill="white"/>
</g>
</svg>
